<svg width="31" height="62" viewBox="0 0 31 62" fill="none" xmlns="http://www.w3.org/2000/svg">
<path d="M5.16825 0.00372209C5.82784 0.00191937 6.47945 0.147927 7.07519 0.431013C7.67095 0.714099 8.1957 1.12707 8.61089 1.63959L29.9178 28.144C30.5667 28.9345 30.921 29.9256 30.9203 30.9483C30.9197 31.9709 30.564 32.9616 29.9141 33.7512L7.82122 60.2266C7.07122 61.1278 5.99397 61.694 4.82644 61.8009C3.65892 61.9078 2.49676 61.5464 1.59564 60.7964C0.694514 60.0464 0.128236 58.9692 0.0213776 57.8017C-0.0854804 56.6341 0.275834 55.472 1.02584 54.5709L20.7769 30.9194L1.71969 7.24208C1.18024 6.59366 0.837818 5.80429 0.732948 4.96735C0.628078 4.13041 0.765145 3.28095 1.12793 2.51947C1.49072 1.758 2.06404 1.11638 2.78007 0.670547C3.49609 0.224705 4.32484 -0.00669431 5.16825 0.00372209Z" fill="#E5E5E5"/>
</svg>
