<svg width="44" height="44" viewBox="0 0 44 44" fill="none" xmlns="http://www.w3.org/2000/svg">
<path d="M0 2.3125C0 1.93125 0.15145 1.56562 0.421034 1.29603C0.690618 1.02645 1.05625 0.875 1.4375 0.875H5.75C6.07065 0.875089 6.38207 0.982383 6.63473 1.17982C6.88738 1.37726 7.06678 1.6535 7.14437 1.96462L8.30875 6.625H41.6875C41.8986 6.6252 42.107 6.67187 42.298 6.76171C42.489 6.85155 42.6579 6.98235 42.7926 7.14481C42.9274 7.30728 43.0247 7.49742 43.0777 7.70174C43.1306 7.90606 43.138 8.11953 43.0991 8.327L38.7866 31.327C38.725 31.6564 38.5501 31.9539 38.2924 32.1681C38.0346 32.3823 37.7101 32.4997 37.375 32.5H11.5C11.1649 32.4997 10.8404 32.3823 10.5826 32.1681C10.3249 31.9539 10.15 31.6564 10.0884 31.327L5.77875 8.37013L4.62875 3.75H1.4375C1.05625 3.75 0.690618 3.59855 0.421034 3.32897C0.15145 3.05938 0 2.69375 0 2.3125ZM14.375 32.5C12.85 32.5 11.3875 33.1058 10.3091 34.1841C9.2308 35.2625 8.625 36.725 8.625 38.25C8.625 39.775 9.2308 41.2375 10.3091 42.3159C11.3875 43.3942 12.85 44 14.375 44C15.9 44 17.3625 43.3942 18.4409 42.3159C19.5192 41.2375 20.125 39.775 20.125 38.25C20.125 36.725 19.5192 35.2625 18.4409 34.1841C17.3625 33.1058 15.9 32.5 14.375 32.5ZM34.5 32.5C32.975 32.5 31.5125 33.1058 30.4341 34.1841C29.3558 35.2625 28.75 36.725 28.75 38.25C28.75 39.775 29.3558 41.2375 30.4341 42.3159C31.5125 43.3942 32.975 44 34.5 44C36.025 44 37.4875 43.3942 38.5659 42.3159C39.6442 41.2375 40.25 39.775 40.25 38.25C40.25 36.725 39.6442 35.2625 38.5659 34.1841C37.4875 33.1058 36.025 32.5 34.5 32.5ZM14.375 35.375C15.1375 35.375 15.8688 35.6779 16.4079 36.2171C16.9471 36.7562 17.25 37.4875 17.25 38.25C17.25 39.0125 16.9471 39.7438 16.4079 40.2829C15.8688 40.8221 15.1375 41.125 14.375 41.125C13.6125 41.125 12.8812 40.8221 12.3421 40.2829C11.8029 39.7438 11.5 39.0125 11.5 38.25C11.5 37.4875 11.8029 36.7562 12.3421 36.2171C12.8812 35.6779 13.6125 35.375 14.375 35.375ZM34.5 35.375C35.2625 35.375 35.9938 35.6779 36.5329 36.2171C37.0721 36.7562 37.375 37.4875 37.375 38.25C37.375 39.0125 37.0721 39.7438 36.5329 40.2829C35.9938 40.8221 35.2625 41.125 34.5 41.125C33.7375 41.125 33.0062 40.8221 32.4671 40.2829C31.9279 39.7438 31.625 39.0125 31.625 38.25C31.625 37.4875 31.9279 36.7562 32.4671 36.2171C33.0062 35.6779 33.7375 35.375 34.5 35.375Z" fill="black"/>
</svg>
