<svg width="28" height="28" viewBox="0 0 28 28" fill="none" xmlns="http://www.w3.org/2000/svg">
<path d="M23.4933 0H4.14587C3.04632 0 1.9918 0.436796 1.2143 1.2143C0.436796 1.9918 2.49966e-07 3.04632 2.49966e-07 4.14587V5.76276C-0.000197906 6.33343 0.11742 6.89799 0.345489 7.42111V7.50402C0.540732 7.94759 0.817278 8.35069 1.16084 8.69251L9.6737 17.1501V26.2572C9.67323 26.492 9.73262 26.7231 9.84626 26.9287C9.95991 27.1342 10.1241 27.3074 10.3232 27.4318C10.5431 27.5681 10.7969 27.64 11.0557 27.6391C11.272 27.6378 11.485 27.5858 11.6775 27.4871L17.2054 24.7232C17.4333 24.6084 17.6249 24.4327 17.7591 24.2156C17.8932 23.9985 17.9647 23.7485 17.9654 23.4933V17.1501L26.423 8.69251C26.7666 8.35069 27.0431 7.94759 27.2384 7.50402V7.42111C27.4855 6.90209 27.622 6.33735 27.6391 5.76276V4.14587C27.6391 3.04632 27.2023 1.9918 26.4248 1.2143C25.6473 0.436796 24.5928 0 23.4933 0ZM15.6023 15.6023C15.4742 15.7314 15.3729 15.8846 15.3041 16.0529C15.2353 16.2213 15.2005 16.4016 15.2015 16.5835V22.6364L12.4376 24.0184V16.5835C12.4387 16.4016 12.4038 16.2213 12.335 16.0529C12.2663 15.8846 12.1649 15.7314 12.0368 15.6023L4.71247 8.29174H22.9267L15.6023 15.6023ZM24.8752 5.52783H2.76391V4.14587C2.76391 3.77935 2.90951 3.42785 3.16868 3.16868C3.42785 2.90951 3.77935 2.76391 4.14587 2.76391H23.4933C23.8598 2.76391 24.2113 2.90951 24.4705 3.16868C24.7296 3.42785 24.8752 3.77935 24.8752 4.14587V5.52783Z" fill="#e5e5e5"/>
</svg>


