<svg width="49" height="37" viewBox="0 0 49 37" fill="none" xmlns="http://www.w3.org/2000/svg">
<path d="M42.495 5.04999C40.665 1.94999 37.31 0.399994 33.65 0.399994H15.35C11.69 0.399994 8.335 1.94999 6.505 5.04999C-0.510001 15.9 -2.035 32.33 2.845 35.74C7.725 39.15 18.705 24.27 24.5 24.27C30.295 24.27 40.97 39.15 46.155 35.74C51.035 32.33 49.51 15.9 42.495 5.04999ZM18.4 15.9H15.35V19H12.3V15.9H9.25V12.8H12.3V9.69999H15.35V12.8H18.4V15.9ZM34.87 17.45C34.87 19 33.65 20.24 32.125 20.24C30.6 20.24 29.38 19 29.38 17.45C29.38 15.9 30.6 14.66 32.125 14.66C33.65 14.66 34.87 15.9 34.87 17.45ZM40.665 11.25C40.665 12.8 39.445 14.04 37.92 14.04C36.395 14.04 35.175 12.8 35.175 11.25C35.175 9.69999 36.395 8.45999 37.92 8.45999C39.445 8.45999 40.665 9.69999 40.665 11.25Z" fill="black"/>
</svg>
