<?xml version="1.0" standalone="no"?>
<!DOCTYPE svg PUBLIC "-//W3C//DTD SVG 20010904//EN"
 "http://www.w3.org/TR/2001/REC-SVG-20010904/DTD/svg10.dtd">
<svg version="1.0" xmlns="http://www.w3.org/2000/svg"
 width="440.000000pt" height="82.000000pt" viewBox="0 0 440.000000 82.000000"
 preserveAspectRatio="xMidYMid meet">

<g transform="translate(0.000000,82.000000) scale(0.100000,-0.100000)"
fill="#000000" stroke="none">
<path d="M2120 657 c-28 -10 -61 -46 -172 -195 -135 -179 -153 -213 -126 -240
33 -33 54 -15 187 163 72 96 136 177 141 180 24 15 52 -15 170 -175 125 -170
153 -195 189 -173 38 24 24 54 -111 232 -73 96 -144 182 -158 192 -34 25 -78
31 -120 16z"/>
<path d="M115 636 c-78 -35 -107 -121 -63 -186 45 -68 58 -70 389 -70 216 0
298 -3 307 -12 20 -20 14 -48 -14 -58 -14 -6 -159 -10 -339 -10 -306 0 -315
-1 -325 -20 -15 -28 -4 -59 23 -65 12 -3 172 -5 355 -3 l334 3 34 37 c29 32
34 45 34 85 0 53 -25 104 -62 125 -17 10 -104 14 -338 18 l-315 5 0 30 0 30
330 5 c182 3 336 9 343 13 19 13 15 65 -7 77 -31 16 -648 13 -686 -4z"/>
<path d="M974 636 c-17 -13 -19 -30 -22 -196 -3 -153 -1 -185 13 -206 18 -28
46 -31 69 -8 12 11 16 35 16 85 l0 69 288 0 c279 0 289 1 332 23 56 28 85 80
75 135 -8 44 -60 97 -105 106 -18 3 -171 6 -339 6 -249 0 -311 -3 -327 -14z
m671 -121 l0 -30 -297 -3 -298 -2 0 35 0 35 298 -2 297 -3 0 -30z"/>
<path d="M2723 629 c-79 -39 -128 -146 -111 -243 12 -64 27 -92 73 -136 l36
-35 341 -3 c247 -2 344 0 354 9 17 14 18 53 1 67 -8 7 -125 12 -327 14 -233 2
-321 6 -337 16 -49 28 -68 114 -38 172 31 60 30 60 372 60 270 0 314 2 327 16
21 21 20 47 -2 67 -16 15 -54 17 -333 17 -297 0 -316 -1 -356 -21z"/>
<path d="M3662 643 c-38 -7 -118 -92 -131 -138 -26 -93 -7 -175 55 -244 l42
-46 337 -3 c355 -3 365 -2 365 42 0 45 -9 46 -304 46 -155 0 -298 3 -318 6
-21 4 -49 17 -62 30 -47 48 -40 155 13 194 28 19 43 20 334 20 264 0 308 2
321 16 21 21 20 47 -2 67 -17 15 -53 17 -323 16 -167 -1 -315 -4 -327 -6z"/>
<path d="M3707 462 c-23 -25 -21 -48 5 -66 34 -24 539 -24 562 0 22 21 20 61
-3 74 -12 6 -121 10 -284 10 -243 0 -265 -1 -280 -18z"/>
<path d="M2134 372 c-24 -16 -35 -51 -23 -74 16 -30 28 -38 61 -38 50 0 77 70
40 103 -19 18 -59 22 -78 9z"/>
</g>
</svg>
