<svg width="43" height="39" viewBox="0 0 43 39" fill="none" xmlns="http://www.w3.org/2000/svg">
<path d="M12.3891 13.0375L14.2479 0.700012H4.58001L0.540356 11.275C0.415806 11.651 0.350006 12.0411 0.350006 12.45C0.350006 15.0444 3.05251 17.15 6.39186 17.15C9.47036 17.15 12.0154 15.3546 12.3891 13.0375ZM21.5 17.15C24.837 17.15 27.5419 15.0444 27.5419 12.45C27.5419 12.3537 27.5348 12.2573 27.5301 12.1657L26.334 0.700012H16.6661L15.4676 12.1563C15.462 12.2541 15.4589 12.352 15.4582 12.45C15.4582 15.0444 18.163 17.15 21.5 17.15ZM33.25 19.6081V28.9H9.75001V19.6222C8.72071 19.9935 7.58801 20.205 6.39186 20.205C5.93361 20.205 5.48946 20.151 5.05001 20.0899V35.01C5.05001 36.8195 6.52816 38.3 8.33531 38.3H34.66C36.4695 38.3 37.95 36.8172 37.95 35.01V20.0922C37.5058 20.1604 37.0575 20.1989 36.6082 20.2074C35.4623 20.2062 34.3256 20.0034 33.25 19.6081ZM42.462 11.275L38.4177 0.700012H28.7521L30.6086 13.0187C30.9705 15.3452 33.5156 17.15 36.6082 17.15C39.9452 17.15 42.65 15.0444 42.65 12.45C42.65 12.0411 42.5842 11.651 42.462 11.275Z" fill="black"/>
</svg>
