<svg width="36" height="38" viewBox="0 0 36 38" fill="none" xmlns="http://www.w3.org/2000/svg">
<path fill-rule="evenodd" clip-rule="evenodd" d="M0 15.3542C0 7.0125 6.492 0.25 14.5 0.25H21.5C29.508 0.25 36 7.0125 36 15.3542C36 23.6958 29.508 30.4583 21.5 30.4583H20.8V37.75C20.8 37.75 0 34.1042 0 15.3542ZM21.691 7.00208C22.721 7.71458 23.498 8.86979 23.498 10.4187C23.498 12.0625 22.861 13.2708 21.83 14.0104C21.423 14.2975 20.9737 14.5135 20.5 14.65V16.2458C20.5 16.451 20.4612 16.6542 20.3858 16.8438C20.3104 17.0333 20.1999 17.2056 20.0607 17.3507C19.9214 17.4958 19.756 17.6109 19.574 17.6894C19.392 17.7679 19.197 17.8083 19 17.8083C18.803 17.8083 18.608 17.7679 18.426 17.6894C18.244 17.6109 18.0786 17.4958 17.9393 17.3507C17.8001 17.2056 17.6896 17.0333 17.6142 16.8438C17.5388 16.6542 17.5 16.451 17.5 16.2458V13.3323C17.4999 12.9359 17.6445 12.5542 17.9044 12.2647C18.1644 11.9751 18.5203 11.7993 18.9 11.7729C19.454 11.7344 19.874 11.6198 20.128 11.4375C20.2305 11.3667 20.3133 11.269 20.368 11.1542C20.428 11.0292 20.498 10.8062 20.498 10.4177C20.498 10.0917 20.375 9.84271 20.03 9.60312C19.638 9.33229 19.008 9.13229 18.251 9.10729C17.503 9.08229 16.776 9.23437 16.241 9.50417C15.705 9.775 15.509 10.0792 15.453 10.3031C15.4076 10.5058 15.3238 10.697 15.2066 10.8655C15.0893 11.034 14.9409 11.1764 14.77 11.2843C14.5992 11.3922 14.4094 11.4635 14.2118 11.4939C14.0141 11.5244 13.8126 11.5134 13.6191 11.4617C13.4256 11.4099 13.244 11.3184 13.0849 11.1925C12.9258 11.0666 12.7924 10.9089 12.6926 10.7286C12.5929 10.5483 12.5287 10.349 12.5038 10.1425C12.479 9.93601 12.494 9.72642 12.548 9.52604C12.892 8.12917 13.896 7.21667 14.933 6.69271C15.973 6.16667 17.196 5.94479 18.347 5.98333C19.489 6.02083 20.709 6.32083 21.691 7.00208ZM19 24.2083C19.5304 24.2083 20.0391 23.9888 20.4142 23.5981C20.7893 23.2074 21 22.6775 21 22.125C21 21.5725 20.7893 21.0426 20.4142 20.6519C20.0391 20.2612 19.5304 20.0417 19 20.0417C18.4696 20.0417 17.9609 20.2612 17.5858 20.6519C17.2107 21.0426 17 21.5725 17 22.125C17 22.6775 17.2107 23.2074 17.5858 23.5981C17.9609 23.9888 18.4696 24.2083 19 24.2083Z" fill="black"/>
</svg>
